<svg width="171" height="153" viewBox="0 0 171 153" fill="none" xmlns="http://www.w3.org/2000/svg">
<path d="M-298.702 146.353C-298.964 146.84 -298.781 147.446 -298.294 147.708L-290.365 151.965C-289.879 152.226 -289.272 152.044 -289.011 151.557C-288.75 151.071 -288.932 150.464 -289.419 150.203L-296.467 146.419L-292.683 139.37C-292.421 138.884 -292.604 138.278 -293.091 138.016C-293.577 137.755 -294.184 137.938 -294.445 138.424L-298.702 146.353ZM170.787 6.37958C171.049 5.893 170.866 5.28675 170.379 5.02549L162.45 0.767939C161.964 0.506677 161.357 0.689335 161.096 1.17591C160.835 1.66249 161.018 2.26874 161.504 2.53L168.552 6.31449L164.768 13.3627C164.507 13.8493 164.689 14.4556 165.176 14.7168C165.662 14.9781 166.269 14.7954 166.53 14.3088L170.787 6.37958ZM-297.821 146.827L-297.533 147.784L170.195 6.86401L169.906 5.90652L169.618 4.94904L-298.11 145.869L-297.821 146.827Z" fill="#FFC657"/>
</svg>
