<svg width="217" height="102" viewBox="0 0 217 102" fill="none" xmlns="http://www.w3.org/2000/svg">
<path d="M-88.717 96.1685C-88.9782 96.6551 -88.7956 97.2614 -88.309 97.5226L-80.3797 101.78C-79.8932 102.041 -79.2869 101.859 -79.0256 101.372C-78.7644 100.886 -78.947 100.279 -79.4336 100.018L-86.4818 96.2336L-82.6974 89.1854C-82.4361 88.6988 -82.6188 88.0926 -83.1053 87.8313C-83.5919 87.57 -84.1982 87.7527 -84.4594 88.2393L-88.717 96.1685ZM216.045 5.82486C216.306 5.33828 216.124 4.73204 215.637 4.47077L207.708 0.213228C207.221 -0.048043 206.615 0.134615 206.354 0.621197C206.093 1.10777 206.275 1.71402 206.762 1.97529L213.81 5.75977L210.025 12.808C209.764 13.2946 209.947 13.9008 210.433 14.1621C210.92 14.4234 211.526 14.2407 211.788 13.7541L216.045 5.82486ZM-87.8359 96.6416L-87.5475 97.5991L215.453 6.30929L215.164 5.3518L214.876 4.39432L-88.1244 95.6841L-87.8359 96.6416Z" fill="#FFC657"/>
</svg>
