<svg width="851" height="614" viewBox="0 0 851 614" fill="none" xmlns="http://www.w3.org/2000/svg">
<path d="M849.327 612.338C849.872 612.249 850.241 611.734 850.151 611.189L848.687 602.309C848.597 601.764 848.083 601.395 847.538 601.485C846.993 601.575 846.624 602.089 846.714 602.634L848.015 610.528L840.121 611.829C839.576 611.919 839.207 612.433 839.297 612.978C839.387 613.523 839.902 613.892 840.447 613.802L849.327 612.338ZM1.00135 2.36509C0.456441 2.45493 0.0875035 2.9695 0.17731 3.51442L1.64112 12.3946C1.73092 12.9395 2.24551 13.3085 2.79042 13.2186C3.33533 13.1288 3.70427 12.6142 3.61446 12.0693L2.31334 4.17583L10.2068 2.87471C10.7517 2.78487 11.1207 2.2703 11.0309 1.72539C10.9411 1.18047 10.4265 0.811521 9.88157 0.901357L1.00135 2.36509ZM849.164 611.352L849.747 610.539L1.74672 2.53911L1.16403 3.3518L0.581345 4.1645L848.581 612.165L849.164 611.352Z" fill="#FFC657"/>
</svg>
