<svg width="1120" height="691" viewBox="0 0 1120 691" fill="none" xmlns="http://www.w3.org/2000/svg">
<g filter="url(#filter0_d_15008_125749)">
<path d="M-102.294 140.135C-102.611 135.463 -99.6429 131.198 -95.1526 129.87L251.888 27.264C254.896 26.3747 258.147 26.9482 260.669 28.8133L1085.27 638.601C1093.02 644.335 1088.97 656.641 1079.32 656.641L-39.2971 656.641C-55.0793 656.641 -68.1628 644.414 -69.2286 628.667L-102.294 140.135Z" fill="#FFC657" fill-opacity="0.15" shape-rendering="crispEdges"/>
<path d="M-102.294 140.135C-102.611 135.463 -99.6429 131.198 -95.1526 129.87L251.888 27.264C254.896 26.3747 258.147 26.9482 260.669 28.8133L1085.27 638.601C1093.02 644.335 1088.97 656.641 1079.32 656.641L-39.2971 656.641C-55.0793 656.641 -68.1628 644.414 -69.2286 628.667L-102.294 140.135Z" fill="black" fill-opacity="0.2" shape-rendering="crispEdges"/>
<path d="M-101.296 140.067C-101.581 135.863 -98.9102 132.024 -94.8689 130.829L252.171 28.2233C254.878 27.4229 257.805 27.9383 260.074 29.6169L1084.67 639.406C1091.65 644.566 1088 655.641 1079.32 655.641L-39.2975 655.641C-54.5534 655.641 -67.2006 643.82 -68.2308 628.599L-101.296 140.067Z" stroke="#FFC657" strokeWidth="2" shape-rendering="crispEdges"/>
</g>
<defs>
<filter id="filter0_d_15008_125749" x="-132.317" y="0.853516" width="1251.66" height="689.788" filterUnits="userSpaceOnUse" color-interpolation-filters="sRGB">
<feFlood flood-opacity="0" result="BackgroundImageFix"/>
<feColorMatrix in="SourceAlpha" type="matrix" values="0 0 0 0 0 0 0 0 0 0 0 0 0 0 0 0 0 0 127 0" result="hardAlpha"/>
<feOffset dy="4"/>
<feGaussianBlur stdDeviation="15"/>
<feComposite in2="hardAlpha" operator="out"/>
<feColorMatrix type="matrix" values="0 0 0 0 0 0 0 0 0 0 0 0 0 0 0 0 0 0 1 0"/>
<feBlend mode="normal" in2="BackgroundImageFix" result="effect1_dropShadow_15008_125749"/>
<feBlend mode="normal" in="SourceGraphic" in2="effect1_dropShadow_15008_125749" result="shape"/>
</filter>
</defs>
</svg>
