<svg width="98" height="543" viewBox="0 0 98 543" fill="none" xmlns="http://www.w3.org/2000/svg">
<path d="M1310.67 942.047C1311.21 941.957 1311.58 941.443 1311.49 940.898L1310.03 932.017C1309.94 931.473 1309.42 931.104 1308.88 931.193C1308.33 931.283 1307.97 931.798 1308.06 932.343L1309.36 940.236L1301.46 941.537C1300.92 941.627 1300.55 942.142 1300.64 942.687C1300.73 943.232 1301.24 943.601 1301.79 943.511L1310.67 942.047ZM1.3231 1.53092C0.778187 1.62075 0.40925 2.13533 0.499056 2.68024L1.96276 11.5604C2.05257 12.1053 2.56715 12.4742 3.11217 12.3845C3.65708 12.2946 4.02602 11.7801 3.93621 11.2351L2.63508 3.34166L10.5286 2.04054C11.0735 1.9507 11.4424 1.43613 11.3526 0.891213C11.2627 0.346223 10.7481 -0.0227227 10.2032 0.0671137L1.3231 1.53092ZM1310.51 941.06L1311.09 940.248L2.06837 1.70486L1.48568 2.51756L0.902992 3.33026L1309.92 941.873L1310.51 941.06Z" fill="#FFC657"/>
</svg>
