<svg width="15" height="919" viewBox="0 0 15 919" fill="none" xmlns="http://www.w3.org/2000/svg">
<path d="M6.79289 963.751C7.18342 964.142 7.81658 964.142 8.20711 963.751L14.5711 957.387C14.9616 956.997 14.9616 956.363 14.5711 955.973C14.1805 955.582 13.5474 955.582 13.1569 955.973L7.5 961.63L1.84315 955.973C1.45262 955.582 0.819457 955.582 0.428932 955.973C0.0384078 956.363 0.0384078 956.997 0.428932 957.387L6.79289 963.751ZM8.20711 1.24896C7.81658 0.858398 7.18342 0.858398 6.79289 1.24896L0.428932 7.61292C0.0384078 8.00342 0.0384078 8.6366 0.428932 9.0271C0.819457 9.41766 1.45262 9.41766 1.84315 9.0271L7.5 3.3703L13.1569 9.0271C13.5474 9.41766 14.1805 9.41766 14.5711 9.0271C14.9616 8.6366 14.9616 8.00342 14.5711 7.61292L8.20711 1.24896ZM7.5 963.044H8.5L8.5 1.95605H7.5H6.5L6.5 963.044H7.5Z" fill="#FFC657"/>
</svg>
