<svg width="509" height="333" viewBox="0 0 509 333" fill="none" xmlns="http://www.w3.org/2000/svg">
<path d="M0.0225074 329.789C-0.094008 330.329 0.249176 330.861 0.78903 330.977L9.58646 332.876C10.1263 332.993 10.6584 332.65 10.7749 332.11C10.8914 331.57 10.5483 331.038 10.0084 330.921L2.18846 329.233L3.87622 321.414C3.99274 320.874 3.64955 320.342 3.1097 320.225C2.56984 320.109 2.03775 320.452 1.92123 320.992L0.0225074 329.789ZM508.978 3.21098C509.094 2.6711 508.751 2.13901 508.211 2.02252L499.414 0.123785C498.874 0.0072581 498.342 0.35045 498.225 0.890292C498.109 1.43017 498.452 1.96226 498.992 2.07875L506.812 3.76654L505.124 11.5865C505.007 12.1263 505.35 12.6584 505.89 12.7749C506.43 12.8914 506.962 12.5483 507.079 12.0084L508.978 3.21098ZM1 330L1.54201 330.84L508.542 3.84037L508 3L507.458 2.15963L0.457986 329.16L1 330Z" fill="#FFC657"/>
</svg>
