<svg width="121" height="497" viewBox="0 0 121 497" fill="none" xmlns="http://www.w3.org/2000/svg">
<path d="M4.09724 0.993219C3.55739 0.876681 3.02528 1.21984 2.90875 1.75969L1.00965 10.557C0.89311 11.0969 1.23627 11.629 1.77612 11.7455C2.31597 11.8621 2.84808 11.5189 2.96462 10.9791L4.6527 3.1592L12.4726 4.84729C13.0124 4.96382 13.5445 4.62066 13.6611 4.08081C13.7776 3.54096 13.4344 3.00886 12.8946 2.89232L4.09724 0.993219ZM330.654 509.962C331.194 510.079 331.726 509.735 331.842 509.196L333.741 500.398C333.858 499.858 333.515 499.326 332.975 499.21C332.435 499.093 331.903 499.436 331.786 499.976L330.098 507.796L322.279 506.108C321.739 505.991 321.207 506.335 321.09 506.874C320.973 507.414 321.317 507.946 321.856 508.063L330.654 509.962ZM3.88623 1.9707L3.04584 2.51268L330.024 509.527L330.865 508.985L331.705 508.443L4.72662 1.42873L3.88623 1.9707Z" fill="#FFC657"/>
</svg>
