<svg width="204" height="525" viewBox="0 0 204 525" fill="none" xmlns="http://www.w3.org/2000/svg">
<path d="M198.583 524.909C199.085 525.139 199.679 524.919 199.909 524.417L203.662 516.237C203.893 515.735 203.672 515.141 203.17 514.911C202.669 514.681 202.075 514.901 201.845 515.403L198.508 522.674L191.237 519.338C190.735 519.107 190.141 519.328 189.911 519.83C189.681 520.331 189.901 520.925 190.403 521.155L198.583 524.909ZM5.41702 0.0910439C4.91507 -0.139265 4.32143 0.0809379 4.09109 0.582881L0.337682 8.76289C0.107346 9.26484 0.327554 9.85849 0.829509 10.0888C1.33147 10.3191 1.92511 10.0989 2.15544 9.59696L5.49182 2.32588L12.7629 5.66226C13.2649 5.89257 13.8585 5.67237 14.0888 5.17043C14.3192 4.66848 14.099 4.07483 13.597 3.84452L5.41702 0.0910439ZM199 524L199.938 523.652L5.93757 0.652191L4.99999 0.999972L4.06242 1.34775L198.062 524.348L199 524Z" fill="#FFC657"/>
</svg>
