<svg width="198" height="204" viewBox="0 0 198 204" fill="none" xmlns="http://www.w3.org/2000/svg">
<path d="M-327.03 198.528C-327.261 199.03 -327.041 199.624 -326.539 199.854L-318.359 203.608C-317.857 203.838 -317.263 203.618 -317.033 203.116C-316.803 202.614 -317.023 202.021 -317.525 201.79L-324.796 198.454L-321.459 191.183C-321.229 190.681 -321.449 190.087 -321.951 189.857C-322.453 189.626 -323.046 189.846 -323.277 190.348L-327.03 198.528ZM197.796 5.38445C198.026 4.88251 197.806 4.28886 197.304 4.0585L189.124 0.304744C188.622 0.0743863 188.028 0.294569 187.798 0.796515C187.568 1.29846 187.788 1.89211 188.29 2.12247L195.561 5.45915L192.224 12.7301C191.994 13.232 192.214 13.8257 192.716 14.056C193.218 14.2864 193.811 14.0662 194.042 13.5643L197.796 5.38445ZM-326.122 198.945L-325.774 199.883L197.234 5.90497L196.887 4.96738L196.539 4.02979L-326.469 198.008L-326.122 198.945Z" fill="#FFC657"/>
</svg>
