<svg width="393" height="530" viewBox="0 0 393 530" fill="none" xmlns="http://www.w3.org/2000/svg">
<g filter="url(#filter0_d_17435_1924)">
<path d="M234.821 26.7631C239.236 25.1316 244.191 26.8001 246.72 30.7699L585.568 562.608C589.81 569.265 585.028 577.981 577.134 577.981L-355.137 577.942C-360.66 577.942 -365.137 573.464 -365.137 567.941L-365.125 269.338C-365.125 256.78 -357.302 245.551 -345.523 241.199L234.821 26.7631Z" fill="#FFC657" fill-opacity="0.15" shape-rendering="crispEdges"/>
<path d="M234.821 26.7631C239.236 25.1316 244.191 26.8001 246.72 30.7699L585.568 562.608C589.81 569.265 585.028 577.981 577.134 577.981L-355.137 577.942C-360.66 577.942 -365.137 573.464 -365.137 567.941L-365.125 269.338C-365.125 256.78 -357.302 245.551 -345.523 241.199L234.821 26.7631Z" fill="black" fill-opacity="0.2" shape-rendering="crispEdges"/>
<path d="M584.725 563.145C588.542 569.136 584.239 576.982 577.134 576.981L-355.137 576.942C-360.107 576.942 -364.137 572.912 -364.137 567.941L-364.125 269.339C-364.125 257.199 -356.563 246.344 -345.177 242.137L235.167 27.7009C239.141 26.2328 243.6 27.7346 245.877 31.3073L584.725 563.145Z" stroke="#FFC657" strokeWidth="2" shape-rendering="crispEdges"/>
</g>
<defs>
<filter id="filter0_d_17435_1924" x="-395.137" y="0.142212" width="1012.29" height="611.839" filterUnits="userSpaceOnUse" color-interpolation-filters="sRGB">
<feFlood flood-opacity="0" result="BackgroundImageFix"/>
<feColorMatrix in="SourceAlpha" type="matrix" values="0 0 0 0 0 0 0 0 0 0 0 0 0 0 0 0 0 0 127 0" result="hardAlpha"/>
<feOffset dy="4"/>
<feGaussianBlur stdDeviation="15"/>
<feComposite in2="hardAlpha" operator="out"/>
<feColorMatrix type="matrix" values="0 0 0 0 0 0 0 0 0 0 0 0 0 0 0 0 0 0 1 0"/>
<feBlend mode="normal" in2="BackgroundImageFix" result="effect1_dropShadow_17435_1924"/>
<feBlend mode="normal" in="SourceGraphic" in2="effect1_dropShadow_17435_1924" result="shape"/>
</filter>
</defs>
</svg>
