<svg width="18" height="18" viewBox="0 0 18 18" fill="none" xmlns="http://www.w3.org/2000/svg">
<path d="M9.5625 5.25C9.5625 4.93934 9.31066 4.6875 9 4.6875C8.68934 4.6875 8.4375 4.93934 8.4375 5.25V8.4375H5.25C4.93934 8.4375 4.6875 8.68934 4.6875 9C4.6875 9.31066 4.93934 9.5625 5.25 9.5625H8.4375V12.75C8.4375 13.0607 8.68934 13.3125 9 13.3125C9.31066 13.3125 9.5625 13.0607 9.5625 12.75V9.5625H12.75C13.0607 9.5625 13.3125 9.31066 13.3125 9C13.3125 8.68934 13.0607 8.4375 12.75 8.4375H9.5625V5.25Z" fill="white"/>
</svg>
