<svg width="612" height="969" viewBox="0 0 612 969" fill="none" xmlns="http://www.w3.org/2000/svg">
<g filter="url(#filter0_d_17128_809)">
<path d="M30.796 379.066C29.1644 374.65 30.8327 369.695 34.8024 367.166L566.626 28.2951C573.283 24.0534 582 28.8351 582 36.7286L582 969C582 974.523 577.522 979 572 979L273.396 979.001C260.839 979.001 249.609 971.179 245.256 959.4L30.796 379.066Z" fill="#FFC657" fill-opacity="0.15" shape-rendering="crispEdges"/>
<path d="M30.796 379.066C29.1644 374.65 30.8327 369.695 34.8024 367.166L566.626 28.2951C573.283 24.0534 582 28.8351 582 36.7286L582 969C582 974.523 577.522 979 572 979L273.396 979.001C260.839 979.001 249.609 971.179 245.256 959.4L30.796 379.066Z" fill="black" fill-opacity="0.2" shape-rendering="crispEdges"/>
<path d="M567.163 29.1385C573.155 25.321 581 29.6244 581 36.7285L581 969C581 973.97 576.97 978 571.999 978L273.397 978.001C261.257 978.001 250.402 970.44 246.194 959.054L31.7339 378.719C30.2656 374.745 31.7672 370.286 35.3398 368.009L567.163 29.1385Z" stroke="#FFC657" stroke-width="2" shape-rendering="crispEdges"/>
</g>
<defs>
<filter id="filter0_d_17128_809" x="0.174805" y="0.712402" width="611.825" height="1012.29" filterUnits="userSpaceOnUse" color-interpolation-filters="sRGB">
<feFlood flood-opacity="0" result="BackgroundImageFix"/>
<feColorMatrix in="SourceAlpha" type="matrix" values="0 0 0 0 0 0 0 0 0 0 0 0 0 0 0 0 0 0 127 0" result="hardAlpha"/>
<feOffset dy="4"/>
<feGaussianBlur stdDeviation="15"/>
<feComposite in2="hardAlpha" operator="out"/>
<feColorMatrix type="matrix" values="0 0 0 0 0 0 0 0 0 0 0 0 0 0 0 0 0 0 1 0"/>
<feBlend mode="normal" in2="BackgroundImageFix" result="effect1_dropShadow_17128_809"/>
<feBlend mode="normal" in="SourceGraphic" in2="effect1_dropShadow_17128_809" result="shape"/>
</filter>
</defs>
</svg>
