<svg width="16" height="16" viewBox="0 0 16 16" fill="none" xmlns="http://www.w3.org/2000/svg">
<path d="M2.6665 10.0001V11.2002C2.6665 11.9469 2.6665 12.3201 2.81183 12.6053C2.93966 12.8562 3.14349 13.0604 3.39437 13.1882C3.67931 13.3334 4.0525 13.3334 4.79778 13.3334H7.99984M2.6665 10.0001V6.00008M2.6665 10.0001H7.99984M2.6665 6.00008V4.80021C2.6665 4.05347 2.6665 3.67983 2.81183 3.39461C2.93966 3.14373 3.14349 2.9399 3.39437 2.81207C3.67958 2.66675 4.05323 2.66675 4.79997 2.66675H7.99984M2.6665 6.00008H7.99984M7.99984 2.66675H11.2C11.9467 2.66675 12.3199 2.66675 12.6051 2.81207C12.856 2.9399 13.0602 3.14373 13.188 3.39461C13.3332 3.67955 13.3332 4.05274 13.3332 4.79802V6.00008M7.99984 2.66675V6.00008M7.99984 6.00008V10.0001M7.99984 6.00008H13.3332M7.99984 10.0001V13.3334M7.99984 10.0001H13.3332M7.99984 13.3334H11.2022C11.9475 13.3334 12.3202 13.3334 12.6051 13.1882C12.856 13.0604 13.0602 12.8562 13.188 12.6053C13.3332 12.3204 13.3332 11.9477 13.3332 11.2025V10.0001M13.3332 10.0001V6.00008" stroke="#FFC657" strokeWidth="1.01887" stroke-linecap="round" strokeLinejoin="round"/>
</svg>
