<svg width="24" height="24" viewBox="0 0 24 24" fill="none" xmlns="http://www.w3.org/2000/svg">
<rect width="24" height="24" rx="4" fill="#525252"/>
<path d="M12.2923 16.6533L9.58421 16.6027C8.70738 16.585 7.82837 16.6202 6.96873 16.4375C5.66102 16.1645 5.56837 14.8259 5.47143 13.7031C5.33786 12.1245 5.38957 10.5173 5.64164 8.95192C5.78395 8.07358 6.34397 7.54947 7.21002 7.49243C10.1336 7.28545 13.0766 7.30998 15.9937 7.40654C16.3018 7.4154 16.612 7.46378 16.9157 7.51885C18.4153 7.78747 18.4519 9.3044 18.5491 10.5814C18.646 11.8715 18.6051 13.1683 18.4198 14.4497C18.2711 15.5106 17.9867 16.4003 16.7865 16.4862C15.2826 16.5985 13.8133 16.6889 12.3052 16.6601C12.3053 16.6533 12.2966 16.6533 12.2923 16.6533ZM10.7002 13.9673C11.8335 13.3024 12.9451 12.6485 14.0719 11.988C12.9365 11.3231 11.827 10.6692 10.7002 10.0087V13.9673Z" fill="white"/>
</svg>
